<?xml version="1.0" standalone="no"?><!DOCTYPE svg PUBLIC "-//W3C//DTD SVG 1.1//EN" "http://www.w3.org/Graphics/SVG/1.1/DTD/svg11.dtd"><svg t="1757412974624" class="icon" viewBox="0 0 1024 1024" version="1.1" xmlns="http://www.w3.org/2000/svg" p-id="5644" xmlns:xlink="http://www.w3.org/1999/xlink" width="200" height="200"><path d="M600.8 659.1s0-0.1 0 0c-0.2-0.1-0.2-0.1 0 0m0 0z" p-id="5645"></path><path d="M189.2 552.9l262.3 262.3c22.6 22.6 59.2 22.6 81.7 0 22.6-22.5 22.6-59.1 0-81.7L369.6 569.8h424.3c31.9 0 57.8-25.9 57.8-57.8s-25.9-57.8-57.8-57.8H369.6l163.7-163.7c22.6-22.5 22.6-59.2 0-81.7-11.3-11.3-26.1-16.9-40.9-16.9-14.8 0-29.6 5.7-40.8 16.9L189.2 471.2c-22.6 22.5-22.6 59.1 0 81.7m0 0z" p-id="5646"></path></svg>