<?xml version="1.0" standalone="no"?><!DOCTYPE svg PUBLIC "-//W3C//DTD SVG 1.1//EN" "http://www.w3.org/Graphics/SVG/1.1/DTD/svg11.dtd"><svg t="1757383484272" class="icon" viewBox="0 0 1024 1024" version="1.1" xmlns="http://www.w3.org/2000/svg" p-id="16291" xmlns:xlink="http://www.w3.org/1999/xlink" width="200" height="200"><path d="M511.672551 556.402149L270.800716 417.301612V139.100537L511.672551 0 752.544385 139.100537v278.201075zM353.448964 369.624968L511.672551 461.048862l158.223586-91.423894V186.908161L511.672551 95.484267l-158.223587 91.423894zM241.592223 1024L0.720389 884.899463V606.698388L241.592223 467.597851l240.871834 139.100537v278.201075zM83.368636 837.222819L241.592223 928.646713l158.223587-91.423894V654.375032l-158.223587-91.423894-158.223587 91.423894zM782.538757 1024l-241.002814-139.100537V606.698388L782.407777 467.597851l240.871834 139.100537v278.201075zM624.18419 837.222819L782.407777 928.646713l158.223587-91.423894V654.375032l-158.223587-91.423894L624.18419 654.375032z" p-id="16292"></path></svg>